<?xml version="1.0" encoding="utf-8"?>
<!-- Generator: Adobe Illustrator 18.0.0, SVG Export Plug-In . SVG Version: 6.00 Build 0)  -->
<!DOCTYPE svg PUBLIC "-//W3C//DTD SVG 1.1//EN" "http://www.w3.org/Graphics/SVG/1.1/DTD/svg11.dtd">
<svg version="1.1" id="Layer_1" xmlns="http://www.w3.org/2000/svg" xmlns:xlink="http://www.w3.org/1999/xlink" x="0px" y="0px"
	 viewBox="0 0 283.5 283.5" enable-background="new 0 0 283.5 283.5" xml:space="preserve">
<g>
	<path fill="#FFFFFF" d="M35,150.2c-2,0.4-3.6,1.3-4.9,2.7c-1.3,1.4-2.1,3-2.6,4.8c-0.5,1.8-0.5,3.7-0.2,5.7c0.3,2,1,3.8,2.1,5.3
		c1.1,1.6,2.6,2.8,4.4,3.7c1.8,0.9,4,1.2,6.6,0.8c2.8-0.4,5.4-1.4,7.6-3c2.2-1.6,3.8-3.5,4.7-5.6c0.6-1.5,1-3.2,1.1-4.9
		c0.1-1.7-0.1-3.4-0.6-5.1c-0.5-1.7-1.3-3.4-2.4-5c-1.1-1.6-2.5-3.1-4.3-4.5c-1.7-1.2-3.1-2.6-4.3-4.2c-1.2-1.6-2.2-3.2-2.9-5
		c-0.7-1.8-1.1-3.6-1.3-5.5c-0.2-1.9,0-3.8,0.5-5.6c-2.1-1.5-3.8-3.4-5.1-5.7c-1.3-2.1-2-4.1-1.9-6.3c0.1-2.1,0.5-4.1,1.3-5.9
		c0.8-1.8,1.8-3.4,3.1-4.7c1.3-1.3,2.5-2.3,3.7-2.8c1.2-0.5,2.1-0.5,2.8-0.1c0.7,0.5,0.9,1.6,0.6,3.4c-0.3,2.1-0.3,4,0,5.8
		c0.4,1.8,1,3.5,1.9,5.1c3.1-3,6.7-5.5,10.9-7.3c4.2-1.9,8.6-2.7,13.2-2.6c3.5,0.1,6.4,0.8,8.7,2.2c2.3,1.4,3.9,3.1,4.9,5.1
		c1,2,1.3,4.2,1.1,6.5c-0.3,2.3-1.2,4.5-2.8,6.6c-1.6,2-3.8,3.8-6.7,5.2c-2.9,1.4-6.4,2.2-10.6,2.4c-4.5,0.2-9-0.3-13.6-1.3
		c0.7,1,1.6,2,2.6,3c1,1,2.2,2,3.5,2.9c2.7,2.1,4.8,4.4,6.3,6.7c1.5,2.3,2.6,4.7,3.2,7.2c0.6,2.4,0.8,4.9,0.5,7.3
		c-0.3,2.4-0.8,4.8-1.6,7c-0.8,2.1-2.1,4.2-3.7,6.1c-1.6,2-3.5,3.7-5.6,5.2c-2.1,1.5-4.5,2.7-7,3.6c-2.6,0.9-5.2,1.4-7.9,1.4
		c-4.6,0.1-8.8-0.7-12.6-2.5c-3.8-1.8-6.9-4.1-9.3-6.9c-2.3-2.8-3.8-6-4.3-9.5c-0.5-3.5,0.2-7,2.2-10.3c1.5-2.5,3.1-4.3,5-5.4
		c1.8-1.1,3.6-1.7,5.4-1.9c1.8-0.2,3.5,0,5,0.5c1.5,0.5,2.8,1.2,3.7,1.9c0.9,0.7,1.3,1.5,1.3,2.2C37,149.4,36.3,149.9,35,150.2z
		 M51.9,120.6c2.4,1.5,4.9,2.6,7.7,3.2c2.7,0.7,5.3,0.8,7.9,0.4c2.7-0.4,4.7-1.4,6.1-2.8c1.4-1.4,2.1-2.9,2.2-4.4
		c0.1-1.5-0.4-2.9-1.6-4c-1.2-1.2-2.9-1.8-5.2-1.8c-1.3,0-2.8,0.2-4.3,0.6c-1.5,0.4-3,0.9-4.5,1.6c-1.4,0.7-2.8,1.5-4,2.5
		c-1.3,0.9-2.3,2-3.1,3.1L51.9,120.6z"/>
	<path fill="#FFFFFF" d="M108,116.2c3.3-0.4,6.3-0.9,9.1-1.2c2.8-0.4,4.9-0.7,6.2-1c1-0.2,1.7-0.1,2,0.2c0.3,0.4,0.3,0.9,0,1.6
		c-0.3,0.7-0.7,1.5-1.4,2.3c-0.7,0.8-1.5,1.6-2.5,2.4c-0.9,0.8-1.9,1.4-2.9,1.9c-1,0.5-1.9,0.8-2.7,0.8h-13.3
		c-1.6,2.2-3.2,4.6-4.9,7c-1.6,2.4-3.1,4.6-4.4,6.5c-1.4,2.1-2.7,4.4-3.8,6.8c-1.1,2.4-1.9,4.6-2.6,6.7c-0.6,2.1-1,3.8-1.1,5.3
		c-0.1,1.5,0.1,2.5,0.7,2.8c0.8,0.5,1.8,0.6,3,0.4c1.3-0.3,2.6-0.9,4.1-1.8c1.5-0.9,3.1-2.2,4.7-3.8c1.6-1.6,3.2-3.5,4.8-5.6
		c0.6-1,1.3-1.7,2-2c0.7-0.3,1.3-0.4,1.7-0.1c0.4,0.2,0.7,0.7,0.7,1.4c0,0.7-0.3,1.7-0.9,2.7c-1.5,2.6-3.3,5.1-5.3,7.3
		c-2,2.2-4,4.1-6.2,5.7c-2.2,1.6-4.4,2.9-6.6,3.8c-2.2,0.9-4.4,1.4-6.6,1.4c-2.2,0-4.1-0.8-5.4-2.4c-1.4-1.6-2-3.9-1.9-7
		c0.1-3.1,1-6.9,2.8-11.5c1.8-4.6,4.8-9.9,9-16c0.7-1,1.5-2.2,2.4-3.6c0.9-1.3,1.8-2.7,2.8-4.1h-9c-0.8,0-1.2-0.2-1.2-0.7
		c0-0.4,0.1-1,0.5-1.5c0.4-0.6,0.9-1.1,1.7-1.6c0.7-0.5,1.5-0.8,2.4-0.8c2.4-0.3,5-0.8,7.7-1.6c2.7-0.8,4.8-1.6,6.5-2.3
		c1.4-0.6,2.9-1.1,4.4-1.7c1.5-0.5,2.8-0.9,3.8-1c1-0.1,1.6,0.1,1.7,0.6c0.1,0.5-0.5,1.5-1.9,3.1L108,116.2z"/>
	<path fill="#FFFFFF" d="M124.7,131.5c2.3,0,4.3,0.5,5.9,1.4c1.6,0.9,2.9,2.2,3.8,3.8c0.9,1.6,1.3,3.4,1.4,5.6
		c0.1,2.2-0.2,4.5-1,6.9c0.6,0.4,1.4,0.7,2.3,1c0.9,0.3,1.8,0.4,2.7,0.3c0.9-0.1,1.8-0.3,2.7-0.7c0.9-0.4,1.6-1.1,2.2-2
		c0.6-1,1.3-1.7,2.1-2c0.8-0.3,1.4-0.4,1.9-0.1c0.5,0.3,0.7,0.8,0.8,1.5c0,0.7-0.3,1.6-1.1,2.7c-1.2,1.6-2.4,2.8-3.8,3.7
		c-1.4,0.9-2.8,1.5-4.2,1.8c-1.4,0.3-2.8,0.4-4.1,0.2c-1.3-0.2-2.6-0.5-3.7-1.1c-1.1,2-2.4,3.8-3.9,5.5c-1.5,1.7-3.1,3.1-4.8,4.3
		c-1.7,1.2-3.6,2.2-5.5,2.8c-2,0.7-3.9,1-5.9,1c-2.4,0-4.4-0.5-6.1-1.4c-1.7-1-2.9-2.3-3.8-3.9c-0.9-1.6-1.3-3.6-1.3-5.8
		c0-2.2,0.4-4.6,1.2-7.1c0.8-2.5,2-4.9,3.5-7.1c1.5-2.2,3.3-4.1,5.3-5.8c2-1.6,4.1-2.9,6.4-3.9C119.9,132,122.2,131.5,124.7,131.5z
		 M117.6,157.9c2.2,0,4.3-0.7,6.2-2.2c1.9-1.4,3.4-3.3,4.5-5.5c-0.9-1.2-1.5-2.3-1.9-3.4c-0.4-1.1-0.6-2.2-0.6-3.2
		c-0.1-1,0-2,0.2-2.8c0.2-0.9,0.5-1.7,0.7-2.4c-0.3-0.1-0.7-0.2-1.1-0.3c-0.4-0.1-0.9-0.1-1.3-0.1c-2.7,0-5.1,1-7.1,2.9
		c-2.1,1.9-3.6,4.3-4.5,7c-0.9,2.8-1,5.1-0.2,7.1C113.3,156.9,115,157.9,117.6,157.9z"/>
	<path fill="#FFFFFF" d="M185.3,149.7c-1.9,2.8-4,5.3-6.4,7.5c-2.3,2.3-4.7,4.2-7.2,5.7c-2.5,1.6-5.1,2.8-7.7,3.7
		c-2.6,0.9-5.3,1.3-7.9,1.3c-3,0-5.5-0.6-7.5-1.8c-2.1-1.2-3.6-2.8-4.5-4.8c-0.9-2-1.3-4.4-1.1-7.2c0.2-2.8,1.1-5.7,2.7-8.8
		c1.1-2.2,2.5-4.3,4.3-6.3c1.8-2,3.7-3.7,5.9-5c2.2-1.3,4.4-2.2,6.8-2.7c2.4-0.4,4.7-0.1,7,0.8c1.9,0.8,3.3,1.8,4.2,3.2
		c0.9,1.4,1.3,2.8,1.3,4.3c0,1.5-0.5,3-1.3,4.4c-0.9,1.4-2.1,2.5-3.7,3.3c-1.9,1-3.5,1.2-4.8,0.8c-1.3-0.4-2.1-1.2-2.4-2.3
		c-0.4-1.1-0.2-2.4,0.5-3.8c0.7-1.4,2.1-2.7,4-3.7c0.6-0.9,0.5-1.5-0.2-1.7c-0.7-0.3-1.8-0.1-3.1,0.6c-1.3,0.6-2.9,1.8-4.5,3.5
		c-1.7,1.7-3.1,4-4.4,6.9c-0.9,2-1.4,3.7-1.4,5.2c-0.1,1.4,0.1,2.7,0.6,3.7c0.5,1,1.1,1.8,2,2.3c0.8,0.5,1.7,0.9,2.7,1.1
		c1.7,0.3,3.5,0.2,5.6-0.3c2.1-0.5,4.1-1.4,6.2-2.5c2.1-1.1,4-2.5,5.9-4.1c1.9-1.6,3.5-3.4,5-5.3c0.8-1,1.5-1.6,2.3-1.9
		c0.7-0.3,1.3-0.4,1.8-0.1c0.4,0.3,0.7,0.7,0.7,1.4C186.3,147.8,186,148.7,185.3,149.7z"/>
	<path fill="#FFFFFF" d="M176.3,167.9c-1.1,0-2-0.1-2.7-0.2c-0.7-0.1-1.2-0.5-1.5-1c-0.3-0.5-0.2-1.3,0-2.3c0.3-1,0.9-2.5,2-4.4
		c1-1.8,2.2-4,3.8-6.6c1.6-2.6,3.3-5.4,5.2-8.4c1.9-3,3.9-6.1,6.1-9.4c2.2-3.3,4.3-6.5,6.6-9.6c2.2-3.1,4.4-6.1,6.6-8.9
		c2.2-2.8,4.3-5.3,6.3-7.4c1.7-1.8,3.3-3,4.8-3.6c1.5-0.6,2.9-0.8,4-0.5c1.1,0.3,2,0.9,2.6,2c0.6,1,0.8,2.3,0.6,3.8
		c-0.2,1.8-1,3.6-2.4,5.5c-1.4,1.9-3,3.8-5,5.7c-1.9,1.9-4,3.9-6.2,5.9c-2.2,2-4.2,4.1-6.1,6.1c2.8-1.5,5.3-2.3,7.6-2.3
		c2.2,0,4,0.6,5.3,1.7c1.3,1.1,2.2,2.7,2.5,4.6c0.3,2-0.1,4.1-1.1,6.5c-1.2,2.6-2.5,4.6-4,6.1c-1.5,1.5-3,2.6-4.4,3.4
		c-1.7,0.9-3.4,1.5-5.1,1.9c0,0.7,0.2,1.3,0.5,1.9c0.3,0.5,0.7,1,1.3,1.3c0.6,0.4,1.5,0.6,2.7,0.6c1.2,0,2.6-0.4,4.1-1.1
		c1.5-0.7,3.1-1.7,4.7-2.9c1.6-1.2,3.1-2.6,4.5-4.1c1.4-1.5,2.6-3.1,3.6-4.7c0.6-1,1.3-1.7,2-2.1c0.7-0.4,1.2-0.4,1.7-0.1
		c0.4,0.3,0.7,0.8,0.8,1.5c0.1,0.7-0.2,1.7-0.9,2.7c-1.1,2-2.7,4.1-4.7,6.2c-2.1,2.2-4.2,4.1-6.6,5.9c-2.3,1.8-4.6,3.3-6.9,4.4
		c-2.3,1.2-4.2,1.8-5.6,1.8c-2.4,0-4.5-0.5-6.1-1.5c-1.6-1-3-2.3-4-3.8c-1-1.5-1.8-3.1-2.3-4.8c-0.5-1.7-0.8-3.2-1-4.6
		c-0.2,0.3-0.4,0.6-0.6,1c-0.2,0.3-0.4,0.6-0.5,1l-3.3,6.5c-0.8,1.6-1.4,2.8-1.8,3.7c-0.4,0.9-0.9,1.5-1.5,1.9
		c-0.5,0.4-1.2,0.6-2,0.7C178.9,167.9,177.8,167.9,176.3,167.9z M205.9,140.5c-1.5-1.2-3.5-1.2-6.1,0.2c-2.6,1.3-5.5,4.7-8.8,9.9
		c2.2,0.8,4.4,0.8,6.6,0.2c2.2-0.6,4.1-1.6,5.7-2.8c1.6-1.3,2.6-2.6,3.2-4C207.1,142.5,206.9,141.4,205.9,140.5z"/>
	<path fill="#FFFFFF" d="M241.5,135.6c-3.4,4.8-6,8.6-7.7,11.7c-1.7,3-2.9,5.4-3.5,7.1c-0.6,1.7-0.7,2.9-0.3,3.5
		c0.4,0.6,0.9,1,1.7,1c1.2,0,2.3-0.4,3.3-1.1c1-0.7,2-1.6,2.9-2.8c0.9-1.2,1.8-2.5,2.7-4c0.9-1.5,1.7-3.1,2.6-4.7
		c0.8-1.7,1.5-3.2,2.1-4.6c0.6-1.4,1.3-2.7,2-4.1c0.6-1.2,1.1-2.2,1.6-2.9c0.5-0.7,1-1.3,1.5-1.6c0.5-0.4,1.2-0.7,1.8-0.8
		c0.7-0.2,1.6-0.3,2.7-0.5c1-0.1,2-0.2,2.9-0.3c0.9-0.1,1.6,0,2.1,0.2c0.5,0.2,0.8,0.6,0.9,1.3c0.1,0.6-0.2,1.5-0.9,2.7
		c-0.6,1.2-1.3,2.5-2.1,3.9c-0.8,1.4-1.5,2.8-2.3,4.1c-0.8,1.4-1.5,2.7-2.3,4c-0.8,1.3-1.4,2.4-2,3.4c-1,1.5-2,3.2-2.8,5
		c-0.9,1.8-1.8,3.6-2.7,5.4c3.5-1.3,6.8-3.1,10-5.3c3.2-2.2,6.2-5,8.9-8.5c0.6-0.8,1.3-1.4,2.1-1.8c0.7-0.4,1.3-0.4,1.8-0.2
		c0.5,0.2,0.7,0.6,0.8,1.3c0,0.7-0.3,1.6-1.1,2.7c-1.6,2.5-3.4,4.7-5.4,6.6c-2,1.9-4.1,3.6-6.3,5c-2.2,1.4-4.5,2.7-6.9,3.8
		c-2.4,1.1-4.8,2-7.1,2.8c-1.9,3.3-4,6.3-6.3,9c-2.3,2.7-5.3,4.7-8.9,6c-3.1,1.1-5.8,1.6-8.2,1.4c-2.4-0.1-4.5-0.6-6.2-1.5
		c-1.7-0.9-3-2.1-3.9-3.6c-0.9-1.5-1.3-3.1-1.2-4.8c0.1-1.7,0.6-3.3,1.7-4.9c1.1-1.6,2.7-3,4.9-4.2c1.5-0.8,3.2-1.4,4.9-2
		c-0.4-1.9-0.2-4.4,0.6-7.4c1.1-3.6,2.5-7,4.1-10.1c1.6-3.1,3.3-5.8,5-8.1c0.8-1.1,1.5-2,2.1-2.7c0.6-0.7,1.2-1.3,1.8-1.7
		c0.6-0.4,1.3-0.7,2-0.9c0.7-0.2,1.7-0.4,2.7-0.6c1-0.1,2-0.2,2.8-0.2c0.8,0,1.5,0.1,1.9,0.3c0.4,0.3,0.6,0.7,0.5,1.3
		C242.7,133.7,242.3,134.5,241.5,135.6z M218.9,176.7c1.8,0,3.9-0.7,6.2-2.1c2.3-1.4,4.8-3.9,7.4-7.3c-1.9-0.4-3.9-0.6-5.8-0.6
		c-2,0-3.8,0.3-5.5,1c-2.1,0.7-3.6,1.6-4.6,2.6c-1,1-1.6,2-1.7,2.9c-0.1,1,0.2,1.8,0.9,2.5C216.4,176.3,217.5,176.7,218.9,176.7z"/>
</g>
</svg>
